<?xml version="1.0" encoding="utf-8" ?><svg xmlns="http://www.w3.org/2000/svg" xmlns:xlink="http://www.w3.org/1999/xlink" width="1024" height="1107" viewBox="0 0 1024 1107"><path fill="#38291D" transform="matrix(0.516129 0 0 0.516325 -1.52588e-05 0)" d="M1256.57 1837.85C1244.01 1846.18 1228.39 1852.03 1214.48 1857.31C1071.85 1911.52 815.767 1910.93 678.497 1838.87C650.479 1824.17 617.269 1801.79 606.924 1768C602.97 1755.08 604.802 1733.93 604.5 1719.71C603.006 1649.37 604.17 1578.92 603.726 1508.56L601.816 788.496C601.781 667.513 600.355 546.337 601.842 425.377C601.98 414.178 602.382 405.567 607.157 395.343C628.307 350.062 680.185 327.806 722.344 312.542C867.578 259.959 1122.35 259.483 1260.63 334.493C1285.45 347.953 1317.46 369.382 1326.37 399.891C1332.01 419.216 1330.05 459.349 1330.09 480.784L1330.22 568.623L1331.01 849.059L1331.04 1454.11L1331.05 1655.41C1331.05 1690.1 1331.14 1724.85 1330.97 1759.53C1330.95 1763.64 1329.51 1766.41 1327.78 1770C1317.08 1799.5 1284.19 1824.15 1258.59 1837.07C1257.31 1837.72 1257.67 1837.58 1256.57 1837.85Z"/><path fill="#B18F6B" transform="matrix(0.516129 0 0 0.516325 -1.52588e-05 0)" d="M1320.38 472.932L1320.12 476.757L1319.8 586.686C1319.78 594.552 1320.25 627.106 1319.55 632.033C1320.08 645.534 1320.04 659.773 1319.82 673.297C1319.12 717.198 1320.59 761.596 1319.46 805.421L1319.69 1008.01C1319.73 1025.42 1319.85 1042.84 1320.06 1060.26C1320.13 1067.37 1320.6 1084.94 1319.56 1091.47C1320.91 1103.04 1320.44 1118.89 1320.3 1130.81C1319.76 1175.67 1320.48 1220.65 1319.86 1265.49C1319.99 1274.3 1317.04 1278.43 1316.68 1284.92L1317.57 1285.49C1315.11 1291.42 1310.75 1298.5 1309.23 1302.32C1303.16 1312.71 1297.41 1322.78 1290.73 1332.75C1177.74 1505.71 947.365 1628.55 757.55 1664.13C743.475 1666.67 729.345 1668.83 715.173 1670.62C676.24 1674.61 653.523 1674.98 614.981 1674.86C614.796 1673.36 615.006 1670.09 615.059 1668.43C616.783 1616.27 615.281 1552.85 615.114 1499.94L613.727 1196.17L612.955 971.12C612.71 943.337 613.992 908.425 612.193 881.53C614.996 880.441 634.881 880.472 639.403 880.367C663.242 879.814 685.585 876.765 709.121 873.242C716.208 872.371 721.845 871.388 728.867 869.97C739.952 869.707 782.064 858.706 794.854 855.317C940.473 816.733 1098.24 735.443 1208.88 625.343C1225.04 608.873 1236.4 596.842 1251.34 579.049C1257.64 572.481 1268.82 557.289 1274.55 549.692C1281.37 540.723 1286.05 533.252 1292.06 523.676C1294.6 521.118 1302.63 505.93 1304.57 501.964C1306.96 498.244 1308.32 495.338 1310.27 491.352C1312.55 487.553 1315.01 484.109 1316.18 479.816C1317.33 477.311 1318.87 475.204 1320.38 472.932Z"/><path fill="#92724F" transform="matrix(0.516129 0 0 0.516325 -1.52588e-05 0)" d="M612.193 881.53C614.996 880.441 634.881 880.472 639.403 880.367C663.242 879.814 685.585 876.765 709.121 873.242L708.145 873.756L706.542 875.833C708.566 885.042 708.892 901.728 709.159 911.56C708.987 918.578 709.157 925.092 709.078 931.988C709.208 938.579 709.375 940.079 711.909 946.063C709.906 947.934 708.874 948.19 708.865 951.629C708.835 962.926 708.996 974.914 709.11 986.171L710.075 1067.63C710.307 1143.84 708.494 1220.46 708.242 1296.95C706.839 1303.81 706.611 1320.85 707.671 1327.8C709.567 1329.2 708.937 1328.86 711.006 1329.66C708.99 1332.46 707.603 1331.3 707.368 1332.17C706.572 1335.09 707.972 1343.88 708.132 1346.6C708.162 1350.75 708.071 1355.47 708.484 1359.55C706.594 1371.03 710.359 1388.54 709.754 1401.07C709.681 1402.38 710.822 1413.13 711.026 1415.15C711.858 1423.35 711.732 1428.71 711.624 1436.84C710.988 1507.1 711.898 1577.36 714.354 1647.58C730.421 1645.13 755.297 1641.36 771.009 1637.12C809.01 1626.87 847.639 1614.44 884.498 1600.12C889.163 1598.31 895.683 1597.46 900.727 1595.52C924.771 1586.23 949.186 1577.33 972.972 1567.33C980.566 1564.14 989.975 1560.91 997.185 1557.49C1004.97 1553.8 1014.38 1546.19 1022.46 1542.17C1043.6 1531.65 1064.68 1519.66 1084.64 1506.73C1099.06 1497.99 1112.17 1485.81 1125.55 1475.88C1167.02 1445.1 1201.93 1407.88 1236.11 1368.35C1246.39 1356.45 1256.09 1342.35 1265.82 1329.73C1273.84 1319.32 1282.26 1308.03 1289.69 1297.05C1300.34 1279.21 1306.89 1264.34 1319.19 1246.91L1319.18 1150.75C1319.16 1132.4 1318.53 1109.51 1319.56 1091.47C1320.91 1103.04 1320.44 1118.89 1320.3 1130.81C1319.76 1175.67 1320.48 1220.65 1319.86 1265.49C1319.99 1274.3 1317.04 1278.43 1316.68 1284.92L1317.57 1285.49C1315.11 1291.42 1310.75 1298.5 1309.23 1302.32C1303.16 1312.71 1297.41 1322.78 1290.73 1332.75C1177.74 1505.71 947.365 1628.55 757.55 1664.13C743.475 1666.67 729.345 1668.83 715.173 1670.62C676.24 1674.61 653.523 1674.98 614.981 1674.86C614.796 1673.36 615.006 1670.09 615.059 1668.43C616.783 1616.27 615.281 1552.85 615.114 1499.94L613.727 1196.17L612.955 971.12C612.71 943.337 613.992 908.425 612.193 881.53Z"/><path fill="#38291D" transform="matrix(0.516129 0 0 0.516325 -1.52588e-05 0)" d="M1319.86 1265.49C1319.99 1274.3 1317.04 1278.43 1316.68 1284.92L1317.57 1285.49C1315.11 1291.42 1310.75 1298.5 1309.23 1302.32C1303.16 1312.71 1297.41 1322.78 1290.73 1332.75C1177.74 1505.71 947.365 1628.55 757.55 1664.13C743.475 1666.67 729.345 1668.83 715.173 1670.62C676.24 1674.61 653.523 1674.98 614.981 1674.86C614.796 1673.36 615.006 1670.09 615.059 1668.43C632.107 1668.3 649.343 1668.73 666.328 1667.74C735.879 1663.09 804.626 1649.13 870.993 1626.17C1042.66 1566.72 1234.85 1444.01 1319.86 1265.49Z"/><path fill="#705941" transform="matrix(0.516129 0 0 0.516325 -1.52588e-05 0)" d="M620.965 1598.38C628.455 1599.13 627.34 1598.93 630.16 1606.05C624.099 1605.32 623.834 1604.05 620.965 1598.38Z"/><path fill="#C7A481" transform="matrix(0.516129 0 0 0.516325 -1.52588e-05 0)" d="M1320.38 472.932L1320.12 476.757C1319.39 480.22 1319.11 482.226 1319.13 485.846C1319.18 494.21 1312.06 505.537 1308.21 512.584C1284.34 555.398 1255.11 594.439 1221.34 628.599C1201.49 648.699 1178.49 666.822 1156.01 685.406C1041.59 780.029 907.838 848.307 765.212 873.719C747.87 876.809 731.229 879.196 713.942 881.629C711.951 881.805 710.688 880.456 709.26 879.305C708.767 877.17 708.47 875.933 708.145 873.756L709.121 873.242C716.208 872.371 721.845 871.388 728.867 869.97C739.952 869.707 782.064 858.706 794.854 855.317C940.473 816.733 1098.24 735.443 1208.88 625.343C1225.04 608.873 1236.4 596.842 1251.34 579.049C1257.64 572.481 1268.82 557.289 1274.55 549.692C1281.37 540.723 1286.05 533.252 1292.06 523.676C1294.6 521.118 1302.63 505.93 1304.57 501.964C1306.96 498.244 1308.32 495.338 1310.27 491.352C1312.55 487.553 1315.01 484.109 1316.18 479.816C1317.33 477.311 1318.87 475.204 1320.38 472.932Z"/><path fill="#C7A481" transform="matrix(0.516129 0 0 0.516325 -1.52588e-05 0)" d="M1319.46 805.421C1318.9 807.287 1318.43 808.612 1317.78 810.429L1316.86 809.287C1317.85 802.823 1317.33 788.442 1316.81 781.574C1313.99 780.801 1313.21 780.895 1311.06 778.813L1311.17 776.615C1313.86 776.625 1313.82 776.711 1316.37 775.854C1319.14 770.391 1315.34 635.178 1317.95 614.769C1318.77 619.939 1317.54 627.962 1319.55 632.033C1320.08 645.534 1320.04 659.773 1319.82 673.297C1319.12 717.198 1320.59 761.596 1319.46 805.421Z"/><path fill="#A4835F" transform="matrix(0.516129 0 0 0.516325 -1.52588e-05 0)" d="M708.242 1296.95C708.321 1303 707.235 1322.5 710.516 1326.4C711.839 1327.97 717.16 1329.78 718.011 1332.74C713.219 1338.02 709.66 1336.71 708.491 1344.08C708.362 1344.92 708.242 1345.76 708.132 1346.6C707.972 1343.88 706.572 1335.09 707.368 1332.17C707.603 1331.3 708.99 1332.46 711.006 1329.66C708.937 1328.86 709.567 1329.2 707.671 1327.8C706.611 1320.85 706.839 1303.81 708.242 1296.95Z"/><path fill="#A4835F" transform="matrix(0.516129 0 0 0.516325 -1.52588e-05 0)" d="M708.484 1359.55C710.041 1367.48 709.674 1376.97 710.548 1384.45C710.906 1387.51 725.16 1394.67 709.754 1401.07C710.359 1388.54 706.594 1371.03 708.484 1359.55Z"/><path fill="#A4835F" transform="matrix(0.516129 0 0 0.516325 -1.52588e-05 0)" d="M709.159 911.56C710.925 925.332 714.409 919.068 714.937 926.289C712.696 928.844 711.553 929.845 709.078 931.988C709.157 925.092 708.987 918.578 709.159 911.56Z"/><path fill="#A4835F" transform="matrix(0.516129 0 0 0.516325 -1.52588e-05 0)" d="M823.033 1288.66C827.062 1288.18 825.526 1287.53 828.138 1289.53C827.818 1294.33 824.701 1297.47 821.547 1300.73L820.801 1299.48L821.735 1295.5C816.074 1294.55 818.04 1298.79 812.575 1299.66L812.338 1297.78C816.893 1294.2 817.46 1292.31 823.033 1288.66Z"/><path fill="#A4835F" transform="matrix(0.516129 0 0 0.516325 -1.52588e-05 0)" d="M971.831 1513.95C976.889 1517.84 980.793 1521.53 979.664 1528.79C971.748 1529.94 969.712 1519.97 971.831 1513.95Z"/><path fill="#A4835F" transform="matrix(0.516129 0 0 0.516325 -1.52588e-05 0)" d="M874.287 1418.39C880.9 1419.7 884.097 1430.13 882.59 1436.56C878.951 1432.74 872.835 1423.88 874.287 1418.39Z"/><path fill="#A4835F" transform="matrix(0.516129 0 0 0.516325 -1.52588e-05 0)" d="M985.211 1074.1C987.889 1076.8 991.11 1081.08 991.779 1085.06L990.289 1086.01C986.589 1086.55 987.03 1087.11 984.148 1085.72C982.941 1082.15 984.38 1077.98 985.211 1074.1Z"/><path fill="#A4835F" transform="matrix(0.516129 0 0 0.516325 -1.52588e-05 0)" d="M937.849 1209.71C941.012 1213.86 940.273 1220.82 936.317 1224.54C933.377 1220.56 933.924 1222.32 933.281 1217.55C934.618 1213.36 935.047 1213.11 937.849 1209.71Z"/><path fill="#A4835F" transform="matrix(0.516129 0 0 0.516325 -1.52588e-05 0)" d="M796.189 1309.85C802.18 1311.62 802.839 1319.91 801.021 1325.12C799.502 1323.28 798.17 1321.27 797.048 1319.12C794.303 1313.81 794.803 1314.57 796.189 1309.85Z"/><path fill="#A4835F" transform="matrix(0.516129 0 0 0.516325 -1.52588e-05 0)" d="M925.167 1441.65C926.874 1442.54 927.243 1442.93 928.803 1444.11C930.042 1449.81 930.184 1450.65 933.61 1455.12C929.131 1453.66 927.893 1454.23 925.867 1451.01C925.994 1447.85 926.12 1446.81 925.556 1443.7L925.167 1441.65Z"/><path fill="#A4835F" transform="matrix(0.516129 0 0 0.516325 -1.52588e-05 0)" d="M976.294 830.608C979.656 832.983 982.213 837.803 981.356 842.144C978.209 840.674 978.199 840.802 975.528 838.171C974.624 834.168 975.01 835.17 976.294 830.608Z"/><path fill="#A4835F" transform="matrix(0.516129 0 0 0.516325 -1.52588e-05 0)" d="M1111.35 990.894C1113.44 995.877 1113.1 1000.78 1109.64 1004.75C1108.27 997.609 1106.87 996.26 1111.35 990.894Z"/><path fill="#A4835F" transform="matrix(0.516129 0 0 0.516325 -1.52588e-05 0)" d="M902.379 1181.52C903.74 1181.99 904.719 1182.54 906.021 1183.19C907.434 1186.83 906.686 1187.01 906.041 1191.66C902.706 1188.06 901.87 1188.32 900.806 1184.13L902.379 1181.52Z"/><path fill="#A4835F" transform="matrix(0.516129 0 0 0.516325 -1.52588e-05 0)" d="M1191.62 1221.29C1196.24 1222.14 1196.7 1222.08 1200.68 1224.51L1200.06 1226C1196.67 1225.84 1194.25 1226.15 1190.6 1225.85L1189.89 1224.55L1191.62 1221.29Z"/><path fill="#705941" transform="matrix(0.516129 0 0 0.516325 -1.52588e-05 0)" d="M851.853 1015.34C855.366 1015.24 855.279 1015.19 858.654 1016.16L858.831 1017.7L856.234 1019.99C853.09 1019.89 852.446 1019.76 849.482 1019.15L849.145 1017.66L851.853 1015.34Z"/><path fill="#A4835F" transform="matrix(0.516129 0 0 0.516325 -1.52588e-05 0)" d="M1028.42 1008.72C1030.3 1009.56 1029.68 1009.28 1031.24 1010.94C1030.46 1014.49 1029.97 1013.96 1026.9 1016.98L1024.78 1016.01C1024.55 1012.6 1025.8 1012.35 1028.42 1008.72Z"/><path fill="#A4835F" transform="matrix(0.516129 0 0 0.516325 -1.52588e-05 0)" d="M1041.71 1002.35C1042.99 1003.54 1042.54 1003.12 1043.27 1004.99C1042.54 1009.4 1042.39 1010.26 1040.85 1014.36L1038.73 1012.01C1038.27 1008.63 1040.22 1005.62 1041.71 1002.35Z"/><path fill="#A4835F" transform="matrix(0.516129 0 0 0.516325 -1.52588e-05 0)" d="M768.779 1625.42L769.565 1629.07C768.525 1633.08 768.305 1632.95 765.624 1635.75L764.045 1632.36C764.885 1628.19 765.233 1629.02 768.779 1625.42Z"/><path fill="#A4835F" transform="matrix(0.516129 0 0 0.516325 -1.52588e-05 0)" d="M1239.45 618.73L1243.06 619.429C1245.69 621.921 1244.86 620.998 1245.82 625.382C1241.27 624.622 1240.93 622.851 1239.45 618.73Z"/><path fill="#A4835F" transform="matrix(0.516129 0 0 0.516325 -1.52588e-05 0)" d="M1216.84 828.806L1217.93 829.321C1219.07 833.129 1218.27 833.381 1217.27 838.017C1215.3 837.498 1216.18 838.013 1214.68 836.402C1215.37 833.76 1216.05 831.407 1216.84 828.806Z"/><path fill="#A4835F" transform="matrix(0.516129 0 0 0.516325 -1.52588e-05 0)" d="M807.407 1127L808.951 1128.7L808.828 1130.47L804.807 1133.49L803.12 1131.42L803.384 1129.64L807.407 1127Z"/><path fill="#A4835F" transform="matrix(0.516129 0 0 0.516325 -1.52588e-05 0)" d="M875.548 946.09L877.279 946.71C880.197 949.558 880.195 950.449 881.566 954.629L879.388 954.005C876.751 951.142 876.671 949.893 875.548 946.09Z"/><path fill="#A4835F" transform="matrix(0.516129 0 0 0.516325 -1.52588e-05 0)" d="M922.037 1103.63L923.118 1103.07C925.929 1103.87 925.395 1104.34 927.563 1107.71C924.624 1106.73 923.165 1106.57 922.037 1103.63Z"/><path fill="#B18F6B" transform="matrix(0.516129 0 0 0.516325 -1.52588e-05 0)" d="M1317.57 1285.49L1319.32 1285.33C1319.34 1286 1319.44 1287.48 1319.35 1288.06C1320.26 1325.37 1319.66 1361.14 1319.73 1398.23L1319.93 1626.59L1320.14 1721.42C1320.15 1727.93 1320.7 1755.12 1319.48 1759.64C1319.49 1761.46 1319.49 1768.5 1319.71 1770.18C1320.12 1773.29 1321.06 1768.47 1321.79 1774.96L1322.84 1771.74L1323.96 1772.51L1325.6 1769.88L1327.78 1770C1317.08 1799.5 1284.19 1824.15 1258.59 1837.07C1257.31 1837.72 1257.67 1837.58 1256.57 1837.85C1256.14 1837.1 1255.45 1836.41 1254.87 1835.73C1246.4 1839.67 1246.95 1835.54 1238.76 1837.12C1235.6 1837.73 1236.74 1837.72 1233.08 1837.54C1224.55 1839.98 1217 1844.35 1208.42 1846.48C1201.42 1849.25 1194.36 1851.81 1187.23 1854.15C1093.96 1882.34 955.553 1892.94 859.444 1877.37C841.672 1868.49 831.951 1865.23 813.907 1858.1C807.242 1855.47 783.9 1840.92 776.441 1836.51L772.14 1833.17C763.237 1829.83 743.356 1812.62 736.462 1805.12C721.666 1789.03 726.246 1784.16 726.327 1766.61L723.875 1764.3C722.701 1753.81 713.713 1675.5 714.783 1672.1L715.173 1670.62C729.345 1668.83 743.475 1666.67 757.55 1664.13C947.365 1628.55 1177.74 1505.71 1290.73 1332.75C1297.41 1322.78 1303.16 1312.71 1309.23 1302.32C1310.75 1298.5 1315.11 1291.42 1317.57 1285.49Z"/><path fill="#C7A481" transform="matrix(0.516129 0 0 0.516325 -1.52588e-05 0)" d="M715.173 1670.62C729.345 1668.83 743.475 1666.67 757.55 1664.13C947.365 1628.55 1177.74 1505.71 1290.73 1332.75L1292.84 1338.27L1294.55 1338.95L1298.74 1336.81C1283.57 1355.92 1272.04 1378.82 1256.2 1396.23C1213.05 1443.85 1166.3 1485.14 1115.1 1522.22C1094.68 1537.01 1071.49 1549.05 1051.01 1562.87C1016.19 1586.38 981.818 1606.26 943.745 1623.02C930.683 1629.82 913.951 1632.08 900.954 1637.95C877.584 1648.51 851.397 1654.76 826.67 1660.63C799.891 1666.99 742.45 1683.05 716.899 1676.76C714.443 1674.44 715.222 1675.89 714.783 1672.1L715.173 1670.62Z"/><defs><linearGradient id="gradient_0" gradientUnits="userSpaceOnUse" x1="1287.7432" y1="1815.8574" x2="1277.3451" y2="1796.4948"><stop offset="0" stop-color="#32271F"/><stop offset="1" stop-color="#553C25"/></linearGradient></defs><path fill="url(#gradient_0)" transform="matrix(0.516129 0 0 0.516325 -1.52588e-05 0)" d="M1233.08 1837.54C1243.24 1832.52 1253.26 1827.15 1263.1 1821.43C1287.56 1806.9 1311.33 1789.73 1319.48 1759.64C1319.49 1761.46 1319.49 1768.5 1319.71 1770.18C1320.12 1773.29 1321.06 1768.47 1321.79 1774.96L1322.84 1771.74L1323.96 1772.51L1325.6 1769.88L1327.78 1770C1317.08 1799.5 1284.19 1824.15 1258.59 1837.07C1257.31 1837.72 1257.67 1837.58 1256.57 1837.85C1256.14 1837.1 1255.45 1836.41 1254.87 1835.73C1246.4 1839.67 1246.95 1835.54 1238.76 1837.12C1235.6 1837.73 1236.74 1837.72 1233.08 1837.54Z"/><path fill="#D0AF8C" transform="matrix(0.516129 0 0 0.516325 -1.52588e-05 0)" d="M1309.23 1302.32C1313.37 1314.37 1310.1 1316.8 1304.12 1327.25C1302.43 1330.04 1299.85 1333.86 1298.74 1336.81L1294.55 1338.95L1292.84 1338.27L1290.73 1332.75C1297.41 1322.78 1303.16 1312.71 1309.23 1302.32Z"/><path fill="#C7A481" transform="matrix(0.516129 0 0 0.516325 -1.52588e-05 0)" d="M1317.57 1285.49L1319.32 1285.33C1319.34 1286 1319.44 1287.48 1319.35 1288.06C1316.7 1301.33 1316.79 1317.7 1304.12 1327.25C1310.1 1316.8 1313.37 1314.37 1309.23 1302.32C1310.75 1298.5 1315.11 1291.42 1317.57 1285.49Z"/><path fill="#A4835F" transform="matrix(0.516129 0 0 0.516325 -1.52588e-05 0)" d="M1044.91 1844.69C1048.5 1845.31 1048.91 1845.93 1052.08 1848.2C1056.32 1851.25 1058.03 1845.71 1062.34 1846.37C1064.57 1848.78 1064.74 1851.12 1065.53 1854.46C1057.57 1851.18 1047.45 1854.51 1044.34 1850.28L1044.87 1849.61C1044.3 1847.09 1044.37 1847.25 1044.91 1844.69Z"/><path fill="#A4835F" transform="matrix(0.516129 0 0 0.516325 -1.52588e-05 0)" d="M929.764 1706.82L931.298 1708.51C932.814 1713.06 932.881 1720.16 928.291 1722.53C927.097 1720.8 926.709 1720.18 924.911 1719.22C923.286 1719.54 921.961 1719.63 920.319 1719.8L919.54 1718.82C925.306 1714.44 928.027 1713.78 929.764 1706.82Z"/><path fill="#A4835F" transform="matrix(0.516129 0 0 0.516325 -1.52588e-05 0)" d="M772.741 1794.84L774.126 1794.18L775.568 1794.94C774.867 1797.98 772.031 1800.63 769.949 1803.03C767.029 1801.09 765.219 1800.81 764.86 1797.26C767.303 1795.02 769.488 1795.21 772.741 1794.84Z"/><path fill="#A4835F" transform="matrix(0.516129 0 0 0.516325 -1.52588e-05 0)" d="M1187.14 1850.7L1186.13 1848.93C1187 1845.29 1187.35 1843.55 1190.34 1841.77L1192.23 1842.91C1192.05 1847.01 1192.76 1848.49 1190.76 1850.55L1187.14 1850.7Z"/><path fill="#92724F" transform="matrix(0.516129 0 0 0.516325 -1.52588e-05 0)" d="M944.538 1742.68C946.147 1743.22 945.371 1742.76 946.785 1744.19C945.01 1747.54 940.47 1750.22 937.321 1752.49L936.312 1753.74L936.476 1751.56C939.368 1746.56 940.043 1746.09 944.538 1742.68Z"/><path fill="#A4835F" transform="matrix(0.516129 0 0 0.516325 -1.52588e-05 0)" d="M1302.98 1452.46C1305.76 1454.77 1305.01 1453.34 1305.86 1456.45C1303.38 1459.09 1303.28 1458.42 1299.35 1459.54L1298.35 1460.32L1297.62 1458.9C1298.84 1455.88 1300.65 1454.63 1302.98 1452.46Z"/><path fill="#705941" transform="matrix(0.516129 0 0 0.516325 -1.52588e-05 0)" d="M1282.01 1612.32C1287.44 1611.66 1293.62 1612.3 1297.25 1617.22C1290.84 1617.79 1287.76 1615.34 1282.01 1612.32Z"/><path fill="#A4835F" transform="matrix(0.516129 0 0 0.516325 -1.52588e-05 0)" d="M1287.87 1504.67C1288.99 1505.23 1289.21 1505.61 1290.18 1506.5C1290.88 1510.11 1289.56 1513.93 1288.68 1517.61L1287.6 1517.62L1286.65 1516.47C1286.2 1511.09 1286.67 1510.08 1287.87 1504.67Z"/><path fill="#A4835F" transform="matrix(0.516129 0 0 0.516325 -1.52588e-05 0)" d="M834.141 1740.03C837.742 1741.21 841.838 1746.27 844.235 1749.68C840.761 1750.48 840.404 1750.4 837.786 1748.38C836.491 1744.71 835.929 1743.46 834.141 1740.03Z"/><path fill="#A4835F" transform="matrix(0.516129 0 0 0.516325 -1.52588e-05 0)" d="M1226.96 1431.43C1227.84 1431.8 1229.37 1432.77 1230.26 1433.29C1232.24 1436.57 1231.64 1439.24 1231.49 1443.26C1227.5 1439.98 1228.08 1437.69 1226.96 1431.43Z"/><path fill="#A4835F" transform="matrix(0.516129 0 0 0.516325 -1.52588e-05 0)" d="M1297.75 1572.2L1301.27 1574.37C1302.4 1577.85 1301.41 1578.4 1300.13 1582.88L1298.58 1582.44C1297.79 1578.84 1297.86 1575.87 1297.75 1572.2Z"/><path fill="#A4835F" transform="matrix(0.516129 0 0 0.516325 -1.52588e-05 0)" d="M926.651 1737.62C929.266 1737.98 934.115 1738.56 935.791 1740.42L933.601 1741.15C929.696 1741.15 927.187 1742.53 924.644 1740.86L926.651 1737.62Z"/><path fill="#92724F" transform="matrix(0.516129 0 0 0.516325 -1.52588e-05 0)" d="M1171.44 1556.58C1174.55 1556.35 1174.94 1556.41 1178.06 1556.85L1178.38 1557.88L1175.73 1559.83C1173.32 1560.1 1171.65 1560.13 1169.25 1560.17L1168.83 1559.1L1171.44 1556.58Z"/><path fill="#A4835F" transform="matrix(0.516129 0 0 0.516325 -1.52588e-05 0)" d="M1053.25 1807.49L1054.48 1807.12C1056.5 1808.97 1056.46 1810.5 1057.01 1813.34C1053.77 1811.5 1053.74 1810.91 1053.25 1807.49Z"/><path fill="#B18F6B" transform="matrix(0.516129 0 0 0.516325 -1.52588e-05 0)" d="M1316.37 458.015L1317.28 455.729L1318.67 455.391C1319.36 457.804 1319.85 468.997 1320.38 472.932C1318.87 475.204 1317.33 477.311 1316.18 479.816C1315.01 484.109 1312.55 487.553 1310.27 491.352C1308.32 495.338 1306.96 498.244 1304.57 501.964C1302.63 505.93 1294.6 521.118 1292.06 523.676C1286.05 533.252 1281.37 540.723 1274.55 549.692C1268.82 557.289 1257.64 572.481 1251.34 579.049C1236.4 596.842 1225.04 608.873 1208.88 625.343C1098.24 735.443 940.473 816.733 794.854 855.317C782.064 858.706 739.952 869.707 728.867 869.97C721.845 871.388 716.208 872.371 709.121 873.242C685.585 876.765 663.242 879.814 639.403 880.367C634.881 880.472 614.996 880.441 612.193 881.53C611.945 876.434 610.706 859.12 612.892 855.584C613.481 802.215 612.164 748.137 612.395 694.482C611.656 678.288 612.085 658.755 612.033 642.267C611.977 624.647 611.46 604.194 612.11 586.758C611.169 578.573 611.157 549.456 611.176 539.976C611.219 518.695 609.795 494.136 610.296 473.347L612.546 472.974C614.037 468.351 611.574 468.299 614.136 464.873L617.158 464.641C619.173 465.817 620.792 466.623 622.862 467.646C649.613 492.063 673.488 505.295 706.037 518.473C706.108 518.513 706.178 518.554 706.249 518.594C730.143 527.073 756.435 536.036 781.071 541.291C930.836 573.233 1172.77 575.767 1300.92 475.317L1303.66 472.281C1308.38 467.806 1312.17 463.049 1316.37 458.015Z"/><path fill="#92724F" transform="matrix(0.516129 0 0 0.516325 -1.52588e-05 0)" d="M1316.37 458.015L1317.28 455.729L1318.67 455.391C1319.36 457.804 1319.85 468.997 1320.38 472.932C1318.87 475.204 1317.33 477.311 1316.18 479.816C1315.01 484.109 1312.55 487.553 1310.27 491.352C1308.32 495.338 1306.96 498.244 1304.57 501.964C1302.63 505.93 1294.6 521.118 1292.06 523.676C1286.05 533.252 1281.37 540.723 1274.55 549.692C1268.82 557.289 1257.64 572.481 1251.34 579.049C1236.4 596.842 1225.04 608.873 1208.88 625.343C1098.24 735.443 940.473 816.733 794.854 855.317C782.064 858.706 739.952 869.707 728.867 869.97C721.845 871.388 716.208 872.371 709.121 873.242C685.585 876.765 663.242 879.814 639.403 880.367C634.881 880.472 614.996 880.441 612.193 881.53C611.945 876.434 610.706 859.12 612.892 855.584C613.481 802.215 612.164 748.137 612.395 694.482C611.656 678.288 612.085 658.755 612.033 642.267C611.977 624.647 611.46 604.194 612.11 586.758C611.169 578.573 611.157 549.456 611.176 539.976C611.219 518.695 609.795 494.136 610.296 473.347L612.546 472.974C614.037 468.351 611.574 468.299 614.136 464.873L617.158 464.641C619.173 465.817 620.792 466.623 622.862 467.646C649.613 492.063 673.488 505.295 706.037 518.473C706.108 518.513 706.178 518.554 706.249 518.594C705.719 519.166 705.189 519.738 704.66 520.311C705.484 533.638 701.554 551.171 702.391 563.953C706.315 623.863 707.505 683.82 707.07 743.889C706.822 777.961 709.398 816.318 706.94 849.986L708.142 849.595C733.883 841.462 761.73 839.426 788.474 831.491C820.219 822.072 844.938 813.371 875.422 800.364C928.48 777.727 981.708 755.561 1032 726.037C1042.83 719.85 1058.06 713.673 1066.65 705.17C1069.55 703.179 1075.05 699.957 1077.3 697.774C1094.56 687.323 1111 674.471 1127.07 662.451C1163.97 634.85 1200.43 606.582 1229.8 569.539C1234.78 563.261 1241.76 557.812 1246.58 551.503C1264.1 528.575 1281.65 505.521 1298.69 482.174C1300.95 479.071 1301.49 478.729 1300.92 475.317L1303.66 472.281C1308.38 467.806 1312.17 463.049 1316.37 458.015Z"/><path fill="#38291D" transform="matrix(0.516129 0 0 0.516325 -1.52588e-05 0)" d="M717.79 864.603C737.293 860.703 759.738 856.902 778.732 852.115C936.166 813.829 1082.37 733.981 1204.26 619.708C1206.73 620.789 1206.49 620.868 1209.16 620.921C1209.54 623.662 1209.55 622.629 1208.88 625.343C1098.24 735.443 940.473 816.733 794.854 855.317C782.064 858.706 739.952 869.707 728.867 869.97C721.524 869.694 721.75 870.668 717.79 864.603Z"/><path fill="#483422" transform="matrix(0.516129 0 0 0.516325 -1.52588e-05 0)" d="M612.193 881.53C611.945 876.434 610.706 859.12 612.892 855.584C612.888 861.784 612.848 867.985 612.773 874.185C650.605 872.875 679.993 870.978 717.79 864.603C721.75 870.668 721.524 869.694 728.867 869.97C721.845 871.388 716.208 872.371 709.121 873.242C685.585 876.765 663.242 879.814 639.403 880.367C634.881 880.472 614.996 880.441 612.193 881.53Z"/><path fill="#483422" transform="matrix(0.516129 0 0 0.516325 -1.52588e-05 0)" d="M1245.22 575.297C1248.25 576.605 1249.5 576.58 1251.34 579.049C1236.4 596.842 1225.04 608.873 1208.88 625.343C1209.55 622.629 1209.54 623.662 1209.16 620.921C1206.49 620.868 1206.73 620.789 1204.26 619.708C1218.49 605.531 1232.15 590.714 1245.22 575.297Z"/><path fill="#705941" transform="matrix(0.516129 0 0 0.516325 -1.52588e-05 0)" d="M1316.37 458.015L1317.28 455.729L1318.67 455.391C1319.36 457.804 1319.85 468.997 1320.38 472.932C1318.87 475.204 1317.33 477.311 1316.18 479.816C1315.01 484.109 1312.55 487.553 1310.27 491.352C1308.32 495.338 1306.96 498.244 1304.57 501.964C1301.46 503.174 1302.96 503.254 1300.03 502.547C1300.08 499.858 1300.13 500.306 1301.3 497.932L1299.84 496.308C1301.5 492.807 1303.33 489.338 1305.09 485.89C1306.72 482.377 1310 477.927 1307.33 474.891C1305.52 476.222 1306.14 475.696 1304.58 477.092L1303.56 478.023C1302.92 475.292 1304.65 477.586 1303.66 472.281C1308.38 467.806 1312.17 463.049 1316.37 458.015Z"/><path fill="#534030" transform="matrix(0.516129 0 0 0.516325 -1.52588e-05 0)" d="M1305.09 485.89L1307.04 488.127C1309.46 486.746 1308.59 487.453 1310.22 484.796L1310.64 485.359C1309.98 487.624 1310.49 486.641 1309.19 488.351L1310.61 488.989L1310.27 491.352C1308.32 495.338 1306.96 498.244 1304.57 501.964C1301.46 503.174 1302.96 503.254 1300.03 502.547C1300.08 499.858 1300.13 500.306 1301.3 497.932L1299.84 496.308C1301.5 492.807 1303.33 489.338 1305.09 485.89Z"/><path fill="#38291D" transform="matrix(0.516129 0 0 0.516325 -1.52588e-05 0)" d="M1316.37 458.015L1317.28 455.729L1318.67 455.391C1319.36 457.804 1319.85 468.997 1320.38 472.932C1318.87 475.204 1317.33 477.311 1316.18 479.816C1311.82 465.024 1318.35 466.141 1316.37 458.015Z"/><path fill="#534030" transform="matrix(0.516129 0 0 0.516325 -1.52588e-05 0)" d="M1268.41 546.35C1271.06 550.291 1270.29 547.728 1274.55 549.692C1268.82 557.289 1257.64 572.481 1251.34 579.049C1249.5 576.58 1248.25 576.605 1245.22 575.297L1268.41 546.35Z"/><path fill="#38291D" transform="matrix(0.516129 0 0 0.516325 -1.52588e-05 0)" d="M1283.83 523.184C1287.94 522.785 1289.41 521.758 1292.06 523.676C1286.05 533.252 1281.37 540.723 1274.55 549.692C1270.29 547.728 1271.06 550.291 1268.41 546.35C1272.57 539.006 1278.97 530.006 1283.83 523.184Z"/><path fill="#483422" transform="matrix(0.516129 0 0 0.516325 -1.52588e-05 0)" d="M1299.84 496.308L1301.3 497.932C1300.13 500.306 1300.08 499.858 1300.03 502.547C1302.96 503.254 1301.46 503.174 1304.57 501.964C1302.63 505.93 1294.6 521.118 1292.06 523.676C1289.41 521.758 1287.94 522.785 1283.83 523.184C1285.5 519.453 1296.67 501.731 1299.84 496.308Z"/><path fill="#A4835F" transform="matrix(0.516129 0 0 0.516325 -1.52588e-05 0)" d="M1066.65 705.17C1067.95 698.771 1066.16 696.143 1067.81 692.257L1069.58 691.937C1070.95 693.785 1070.44 693.239 1072.35 694.696L1075.86 693.265L1076.94 694.023L1075.66 696.531L1077.3 697.774C1075.05 699.957 1069.55 703.179 1066.65 705.17Z"/><path fill="#A4835F" transform="matrix(0.516129 0 0 0.516325 -1.52588e-05 0)" d="M1087.18 568.865C1087.97 568.901 1089.23 569.264 1090.06 569.456C1090.3 574.837 1078.74 580.274 1073.96 587.92L1072.38 587.883L1072.06 586.289C1074.54 581.349 1082.46 574.44 1086.64 569.509L1087.18 568.865Z"/><path fill="#A4835F" transform="matrix(0.516129 0 0 0.516325 -1.52588e-05 0)" d="M918.33 703.18C919.688 703.723 919.574 703.886 920.752 704.966L920.488 707.375C917.752 711.59 914.133 713.959 910.254 717.04C909.24 717.606 909.975 717.266 907.902 717.545L907.688 714.87C910.938 710.22 914.379 707.11 918.33 703.18Z"/><path fill="#A4835F" transform="matrix(0.516129 0 0 0.516325 -1.52588e-05 0)" d="M852.678 638.049C857.549 641.322 855.893 646.068 854.002 650.721L851.264 648.168C850.261 644.424 851.537 641.868 852.678 638.049Z"/><path fill="#A4835F" transform="matrix(0.516129 0 0 0.516325 -1.52588e-05 0)" d="M842.143 589.811C843.649 591.141 843.125 590.285 843.625 592.442C841.871 596.744 841.208 598.331 840.282 602.919L840.094 603.892C838.481 602.656 839.283 603.448 837.832 601.36C837.715 596.951 840.026 593.809 842.143 589.811Z"/><path fill="#A4835F" transform="matrix(0.516129 0 0 0.516325 -1.52588e-05 0)" d="M745.188 570.427C746.346 571.491 746.777 572.564 747.659 574.031C747.757 578.413 748.274 576.349 745.406 580.217L744.084 579.056C743.843 575.866 744.542 573.545 745.188 570.427Z"/><path fill="#A4835F" transform="matrix(0.516129 0 0 0.516325 -1.52588e-05 0)" d="M1090.99 605.388L1092.81 607.35C1092.65 611.691 1092.62 610.446 1090.19 614.641L1089.41 613.97C1088.61 610.598 1089.74 609.383 1090.99 605.388Z"/><path fill="#92724F" transform="matrix(0.516129 0 0 0.516325 -1.52588e-05 0)" d="M614.981 1674.86C653.523 1674.98 676.24 1674.61 715.173 1670.62L714.783 1672.1C713.713 1675.5 722.701 1753.81 723.875 1764.3L726.327 1766.61C726.246 1784.16 721.666 1789.03 736.462 1805.12C743.356 1812.62 763.237 1829.83 772.14 1833.17L776.441 1836.51C783.9 1840.92 807.242 1855.47 813.907 1858.1C831.951 1865.23 841.672 1868.49 859.444 1877.37C850.664 1876.93 835.618 1874.5 826.358 1872.88C761.138 1861.17 692.21 1843.48 639.442 1798.27C604.025 1767.93 617.56 1719.2 614.981 1674.86Z"/><path fill="#705941" transform="matrix(0.516129 0 0 0.516325 -1.52588e-05 0)" d="M772.14 1833.17L776.441 1836.51C775.334 1840.94 776.099 1840.8 773.446 1843.07L771.436 1842.25C769.08 1837.39 768.754 1836.62 772.14 1833.17Z"/><path fill="#A4835F" transform="matrix(0.516129 0 0 0.516325 -1.52588e-05 0)" d="M608.757 447.008C613.463 454.403 617.747 460.56 622.862 467.646C620.792 466.623 619.173 465.817 617.158 464.641L614.136 464.873C611.574 468.299 614.037 468.351 612.546 472.974L610.296 473.347L608.757 447.008Z"/><path fill="#705941" transform="matrix(0.516129 0 0 0.516325 -1.52588e-05 0)" d="M942.774 287.301C1041.01 282.426 1208.72 301.808 1290.87 368.89C1302.42 378.759 1317.98 398.114 1318.2 414.859C1318.73 455.591 1274.01 482.688 1245.37 496.326C1166.14 534.059 1075.98 545.767 990.41 549.336C882.349 552.648 730.713 536.477 639.558 465.929C613.61 445.846 602.869 406.524 629.194 381.076C706.749 306.104 843.689 291.856 942.774 287.301Z"/><path fill="#38291D" transform="matrix(0.516129 0 0 0.516325 -1.52588e-05 0)" d="M938.252 302.029C1032.36 298.547 1188.93 309.372 1269.41 374.649C1279.37 383.121 1292.33 401.347 1291.59 415.166C1288.8 467.121 1225.59 489.972 1184.98 503.491C1124.13 523.745 1057.83 530.113 993.453 533.109C894.083 537.261 748.707 524.145 663.644 460.748C641.087 443.936 632.885 406.372 654.883 385.078C724.535 317.655 850.063 306.845 938.252 302.029Z"/><path fill="#705941" transform="matrix(0.516129 0 0 0.516325 -1.52588e-05 0)" d="M756.785 495.789C726.236 485.516 668.276 464.949 655.421 434.565C627.503 368.58 774.245 333.849 807.789 327.442C931.927 303.732 1060.57 305.107 1182.13 340.866C1213.05 349.963 1291.49 380.02 1280.11 428.028C1272.24 456.251 1235.1 471.263 1212.04 483.011C1105.87 529.919 921.541 531.632 809.857 508.899C796.038 506.086 769.798 500.896 756.785 495.789Z"/><path fill="#534030" transform="matrix(0.516129 0 0 0.516325 -1.52588e-05 0)" d="M756.785 495.789C760.134 495.589 783.463 483.903 788.497 482.03C901.894 439.805 1032.16 432.543 1149.21 461.025C1171.22 466.379 1191.01 475.099 1212.04 483.011C1105.87 529.919 921.541 531.632 809.857 508.899C796.038 506.086 769.798 500.896 756.785 495.789Z"/></svg>